<mxfile host="app.diagrams.net" modified="2024-03-07T12:36:42.145Z" agent="Mozilla/5.0 (Windows NT 10.0; Win64; x64) AppleWebKit/537.36 (KHTML, like Gecko) Chrome/122.0.0.0 Safari/537.36" etag="ODCiu5JPZMPCKviDYjFY" version="24.0.1" type="device">
  <diagram name="PÃ¡gina-1" id="T6ixb0fTljzo4QekZAQj">
    <mxGraphModel dx="1518" dy="673" grid="1" gridSize="10" guides="1" tooltips="1" connect="1" arrows="1" fold="1" page="1" pageScale="1" pageWidth="827" pageHeight="1169" math="0" shadow="0">
      <root>
        <mxCell id="0" />
        <mxCell id="1" parent="0" />
        <mxCell id="SHQzkEmTQROIuy7lI2LI-2" value="Aluguer" style="rounded=0;whiteSpace=wrap;html=1;" vertex="1" parent="1">
          <mxGeometry x="440" y="520" width="70" height="40" as="geometry" />
        </mxCell>
        <mxCell id="SHQzkEmTQROIuy7lI2LI-4" value="Veiculo" style="rounded=0;whiteSpace=wrap;html=1;" vertex="1" parent="1">
          <mxGeometry x="1000" y="520" width="70" height="40" as="geometry" />
        </mxCell>
        <mxCell id="SHQzkEmTQROIuy7lI2LI-5" value="Balcao" style="rounded=0;whiteSpace=wrap;html=1;" vertex="1" parent="1">
          <mxGeometry x="440" y="760" width="70" height="40" as="geometry" />
        </mxCell>
        <mxCell id="SHQzkEmTQROIuy7lI2LI-8" value="Cliente" style="rounded=0;whiteSpace=wrap;html=1;" vertex="1" parent="1">
          <mxGeometry x="440" y="640" width="70" height="40" as="geometry" />
        </mxCell>
        <mxCell id="SHQzkEmTQROIuy7lI2LI-10" value="NIF" style="rounded=0;whiteSpace=wrap;html=1;" vertex="1" parent="1">
          <mxGeometry x="440" y="680" width="70" height="40" as="geometry" />
        </mxCell>
        <mxCell id="SHQzkEmTQROIuy7lI2LI-11" value="nome" style="rounded=0;whiteSpace=wrap;html=1;" vertex="1" parent="1">
          <mxGeometry x="510" y="680" width="70" height="40" as="geometry" />
        </mxCell>
        <mxCell id="SHQzkEmTQROIuy7lI2LI-12" value="endereco" style="rounded=0;whiteSpace=wrap;html=1;" vertex="1" parent="1">
          <mxGeometry x="580" y="680" width="70" height="40" as="geometry" />
        </mxCell>
        <mxCell id="SHQzkEmTQROIuy7lI2LI-13" value="num_carta" style="rounded=0;whiteSpace=wrap;html=1;" vertex="1" parent="1">
          <mxGeometry x="650" y="680" width="70" height="40" as="geometry" />
        </mxCell>
        <mxCell id="SHQzkEmTQROIuy7lI2LI-14" value="numero" style="rounded=0;whiteSpace=wrap;html=1;" vertex="1" parent="1">
          <mxGeometry x="440" y="560" width="70" height="40" as="geometry" />
        </mxCell>
        <mxCell id="SHQzkEmTQROIuy7lI2LI-15" value="duracao" style="rounded=0;whiteSpace=wrap;html=1;" vertex="1" parent="1">
          <mxGeometry x="510" y="560" width="70" height="40" as="geometry" />
        </mxCell>
        <mxCell id="SHQzkEmTQROIuy7lI2LI-16" value="data" style="rounded=0;whiteSpace=wrap;html=1;" vertex="1" parent="1">
          <mxGeometry x="580" y="560" width="70" height="40" as="geometry" />
        </mxCell>
        <mxCell id="SHQzkEmTQROIuy7lI2LI-58" style="edgeStyle=orthogonalEdgeStyle;rounded=0;orthogonalLoop=1;jettySize=auto;html=1;entryX=0.5;entryY=1;entryDx=0;entryDy=0;exitX=0.5;exitY=1;exitDx=0;exitDy=0;" edge="1" parent="1" source="SHQzkEmTQROIuy7lI2LI-17" target="SHQzkEmTQROIuy7lI2LI-10">
          <mxGeometry relative="1" as="geometry">
            <Array as="points">
              <mxPoint x="685" y="620" />
              <mxPoint x="420" y="620" />
              <mxPoint x="420" y="740" />
              <mxPoint x="475" y="740" />
            </Array>
          </mxGeometry>
        </mxCell>
        <mxCell id="SHQzkEmTQROIuy7lI2LI-17" value="Cliente_NIF" style="rounded=0;whiteSpace=wrap;html=1;" vertex="1" parent="1">
          <mxGeometry x="650" y="560" width="70" height="40" as="geometry" />
        </mxCell>
        <mxCell id="SHQzkEmTQROIuy7lI2LI-18" value="Balcao_numero" style="rounded=0;whiteSpace=wrap;html=1;" vertex="1" parent="1">
          <mxGeometry x="720" y="560" width="90" height="40" as="geometry" />
        </mxCell>
        <mxCell id="SHQzkEmTQROIuy7lI2LI-64" style="edgeStyle=orthogonalEdgeStyle;rounded=0;orthogonalLoop=1;jettySize=auto;html=1;entryX=0.5;entryY=1;entryDx=0;entryDy=0;exitX=0.5;exitY=1;exitDx=0;exitDy=0;" edge="1" parent="1" source="SHQzkEmTQROIuy7lI2LI-19" target="SHQzkEmTQROIuy7lI2LI-23">
          <mxGeometry relative="1" as="geometry" />
        </mxCell>
        <mxCell id="SHQzkEmTQROIuy7lI2LI-19" value="Veiculo_matricula" style="rounded=0;whiteSpace=wrap;html=1;" vertex="1" parent="1">
          <mxGeometry x="810" y="560" width="100" height="40" as="geometry" />
        </mxCell>
        <mxCell id="SHQzkEmTQROIuy7lI2LI-20" value="nome" style="rounded=0;whiteSpace=wrap;html=1;" vertex="1" parent="1">
          <mxGeometry x="440" y="800" width="70" height="40" as="geometry" />
        </mxCell>
        <mxCell id="SHQzkEmTQROIuy7lI2LI-21" value="numero" style="rounded=0;whiteSpace=wrap;html=1;" vertex="1" parent="1">
          <mxGeometry x="510" y="800" width="70" height="40" as="geometry" />
        </mxCell>
        <mxCell id="SHQzkEmTQROIuy7lI2LI-22" value="endereco" style="rounded=0;whiteSpace=wrap;html=1;" vertex="1" parent="1">
          <mxGeometry x="580" y="800" width="70" height="40" as="geometry" />
        </mxCell>
        <mxCell id="SHQzkEmTQROIuy7lI2LI-23" value="matricula" style="rounded=0;whiteSpace=wrap;html=1;" vertex="1" parent="1">
          <mxGeometry x="1000" y="560" width="70" height="40" as="geometry" />
        </mxCell>
        <mxCell id="SHQzkEmTQROIuy7lI2LI-24" value="marca" style="rounded=0;whiteSpace=wrap;html=1;" vertex="1" parent="1">
          <mxGeometry x="1070" y="560" width="70" height="40" as="geometry" />
        </mxCell>
        <mxCell id="SHQzkEmTQROIuy7lI2LI-25" value="ano" style="rounded=0;whiteSpace=wrap;html=1;" vertex="1" parent="1">
          <mxGeometry x="1140" y="560" width="70" height="40" as="geometry" />
        </mxCell>
        <mxCell id="SHQzkEmTQROIuy7lI2LI-63" style="edgeStyle=orthogonalEdgeStyle;rounded=0;orthogonalLoop=1;jettySize=auto;html=1;entryX=0.25;entryY=1;entryDx=0;entryDy=0;" edge="1" parent="1" source="SHQzkEmTQROIuy7lI2LI-26" target="SHQzkEmTQROIuy7lI2LI-52">
          <mxGeometry relative="1" as="geometry">
            <Array as="points">
              <mxPoint x="1275" y="630" />
              <mxPoint x="980" y="630" />
              <mxPoint x="980" y="740" />
              <mxPoint x="1018" y="740" />
            </Array>
          </mxGeometry>
        </mxCell>
        <mxCell id="SHQzkEmTQROIuy7lI2LI-26" value="TipoDeVeiculo_codigo" style="rounded=0;whiteSpace=wrap;html=1;" vertex="1" parent="1">
          <mxGeometry x="1210" y="560" width="130" height="40" as="geometry" />
        </mxCell>
        <mxCell id="SHQzkEmTQROIuy7lI2LI-27" value="Ligeiro" style="rounded=0;whiteSpace=wrap;html=1;" vertex="1" parent="1">
          <mxGeometry x="1000" y="760" width="70" height="40" as="geometry" />
        </mxCell>
        <mxCell id="SHQzkEmTQROIuy7lI2LI-28" value="numlugares" style="rounded=0;whiteSpace=wrap;html=1;" vertex="1" parent="1">
          <mxGeometry x="1000" y="800" width="70" height="40" as="geometry" />
        </mxCell>
        <mxCell id="SHQzkEmTQROIuy7lI2LI-29" value="portas" style="rounded=0;whiteSpace=wrap;html=1;" vertex="1" parent="1">
          <mxGeometry x="1070" y="800" width="70" height="40" as="geometry" />
        </mxCell>
        <mxCell id="SHQzkEmTQROIuy7lI2LI-30" value="combustivel" style="rounded=0;whiteSpace=wrap;html=1;" vertex="1" parent="1">
          <mxGeometry x="1140" y="800" width="70" height="40" as="geometry" />
        </mxCell>
        <mxCell id="SHQzkEmTQROIuy7lI2LI-69" style="edgeStyle=orthogonalEdgeStyle;rounded=0;orthogonalLoop=1;jettySize=auto;html=1;entryX=0.5;entryY=1;entryDx=0;entryDy=0;exitX=0.5;exitY=1;exitDx=0;exitDy=0;" edge="1" parent="1" source="SHQzkEmTQROIuy7lI2LI-31" target="SHQzkEmTQROIuy7lI2LI-52">
          <mxGeometry relative="1" as="geometry">
            <Array as="points">
              <mxPoint x="1245" y="860" />
              <mxPoint x="1320" y="860" />
              <mxPoint x="1320" y="740" />
              <mxPoint x="1035" y="740" />
            </Array>
          </mxGeometry>
        </mxCell>
        <mxCell id="SHQzkEmTQROIuy7lI2LI-31" value="codigo" style="rounded=0;whiteSpace=wrap;html=1;" vertex="1" parent="1">
          <mxGeometry x="1210" y="800" width="70" height="40" as="geometry" />
        </mxCell>
        <mxCell id="SHQzkEmTQROIuy7lI2LI-34" value="Pesado" style="rounded=0;whiteSpace=wrap;html=1;" vertex="1" parent="1">
          <mxGeometry x="1000" y="880" width="70" height="40" as="geometry" />
        </mxCell>
        <mxCell id="SHQzkEmTQROIuy7lI2LI-35" value="peso" style="rounded=0;whiteSpace=wrap;html=1;" vertex="1" parent="1">
          <mxGeometry x="1000" y="920" width="70" height="40" as="geometry" />
        </mxCell>
        <mxCell id="SHQzkEmTQROIuy7lI2LI-36" value="passageiros" style="rounded=0;whiteSpace=wrap;html=1;" vertex="1" parent="1">
          <mxGeometry x="1070" y="920" width="80" height="40" as="geometry" />
        </mxCell>
        <mxCell id="SHQzkEmTQROIuy7lI2LI-70" style="edgeStyle=orthogonalEdgeStyle;rounded=0;orthogonalLoop=1;jettySize=auto;html=1;entryX=0.5;entryY=1;entryDx=0;entryDy=0;" edge="1" parent="1" source="SHQzkEmTQROIuy7lI2LI-37" target="SHQzkEmTQROIuy7lI2LI-52">
          <mxGeometry relative="1" as="geometry">
            <Array as="points">
              <mxPoint x="1185" y="980" />
              <mxPoint x="1320" y="980" />
              <mxPoint x="1320" y="740" />
              <mxPoint x="1035" y="740" />
            </Array>
          </mxGeometry>
        </mxCell>
        <mxCell id="SHQzkEmTQROIuy7lI2LI-37" value="codigo" style="rounded=0;whiteSpace=wrap;html=1;" vertex="1" parent="1">
          <mxGeometry x="1150" y="920" width="70" height="40" as="geometry" />
        </mxCell>
        <mxCell id="SHQzkEmTQROIuy7lI2LI-41" value="Similaridade" style="rounded=0;whiteSpace=wrap;html=1;" vertex="1" parent="1">
          <mxGeometry x="1000" y="1000" width="70" height="40" as="geometry" />
        </mxCell>
        <mxCell id="SHQzkEmTQROIuy7lI2LI-42" value="codigo1" style="rounded=0;whiteSpace=wrap;html=1;" vertex="1" parent="1">
          <mxGeometry x="1000" y="1040" width="70" height="40" as="geometry" />
        </mxCell>
        <mxCell id="SHQzkEmTQROIuy7lI2LI-71" style="edgeStyle=orthogonalEdgeStyle;rounded=0;orthogonalLoop=1;jettySize=auto;html=1;entryX=0.5;entryY=1;entryDx=0;entryDy=0;" edge="1" parent="1" source="SHQzkEmTQROIuy7lI2LI-43" target="SHQzkEmTQROIuy7lI2LI-52">
          <mxGeometry relative="1" as="geometry">
            <Array as="points">
              <mxPoint x="1110" y="1100" />
              <mxPoint x="1320" y="1100" />
              <mxPoint x="1320" y="740" />
              <mxPoint x="1035" y="740" />
            </Array>
          </mxGeometry>
        </mxCell>
        <mxCell id="SHQzkEmTQROIuy7lI2LI-43" value="codigo2" style="rounded=0;whiteSpace=wrap;html=1;" vertex="1" parent="1">
          <mxGeometry x="1070" y="1040" width="80" height="40" as="geometry" />
        </mxCell>
        <mxCell id="SHQzkEmTQROIuy7lI2LI-51" value="TipoDeVeiculo" style="rounded=0;whiteSpace=wrap;html=1;" vertex="1" parent="1">
          <mxGeometry x="1000" y="640" width="80" height="40" as="geometry" />
        </mxCell>
        <mxCell id="SHQzkEmTQROIuy7lI2LI-52" value="codigo" style="rounded=0;whiteSpace=wrap;html=1;" vertex="1" parent="1">
          <mxGeometry x="1000" y="680" width="70" height="40" as="geometry" />
        </mxCell>
        <mxCell id="SHQzkEmTQROIuy7lI2LI-55" value="designacao" style="rounded=0;whiteSpace=wrap;html=1;" vertex="1" parent="1">
          <mxGeometry x="1070" y="680" width="70" height="40" as="geometry" />
        </mxCell>
        <mxCell id="SHQzkEmTQROIuy7lI2LI-56" value="arcondicionado" style="rounded=0;whiteSpace=wrap;html=1;" vertex="1" parent="1">
          <mxGeometry x="1140" y="680" width="90" height="40" as="geometry" />
        </mxCell>
        <mxCell id="SHQzkEmTQROIuy7lI2LI-59" style="edgeStyle=orthogonalEdgeStyle;rounded=0;orthogonalLoop=1;jettySize=auto;html=1;entryX=0.663;entryY=1.03;entryDx=0;entryDy=0;entryPerimeter=0;" edge="1" parent="1" source="SHQzkEmTQROIuy7lI2LI-18" target="SHQzkEmTQROIuy7lI2LI-21">
          <mxGeometry relative="1" as="geometry">
            <Array as="points">
              <mxPoint x="765" y="870" />
              <mxPoint x="556" y="870" />
            </Array>
          </mxGeometry>
        </mxCell>
      </root>
    </mxGraphModel>
  </diagram>
</mxfile>
